HIERARCHY
ROOT Hips
{
 OFFSET 0.000000 0.000000 0.000000
 CHANNELS 6 Xposition Yposition Zposition Yrotation Xrotation Zrotation
 JOINT Chest
 {
  OFFSET 0.000000 9.585900 0.002600
  CHANNELS 3 Yrotation Xrotation Zrotation
  JOINT Chest2
  {
   OFFSET 0.000000 9.601200 -0.005300
   CHANNELS 3 Yrotation Xrotation Zrotation
   JOINT Chest3
   {
    OFFSET 0.000000 9.561800 0.000000
    CHANNELS 3 Yrotation Xrotation Zrotation
    JOINT Chest4
    {
     OFFSET 0.000000 9.552100 0.000000
     CHANNELS 3 Yrotation Xrotation Zrotation
     JOINT Neck
     {
      OFFSET 0.000000 14.453000 0.000000
      CHANNELS 3 Yrotation Xrotation Zrotation
      JOINT Head
      {
       OFFSET 0.000000 8.936500 -0.011300
       CHANNELS 3 Yrotation Xrotation Zrotation
       End Site
       {
        OFFSET 0.000000 17.073600 -0.006000
       }
      }
     }
     JOINT RightCollar
     {
      OFFSET -2.921100 9.558500 0.000000
      CHANNELS 3 Yrotation Xrotation Zrotation
      JOINT RightShoulder
      {
       OFFSET -13.519700 0.000000 0.000000
       CHANNELS 3 Yrotation Xrotation Zrotation
       JOINT RightElbow
       {
        OFFSET 0.000000 -29.696600 0.000000
        CHANNELS 3 Yrotation Xrotation Zrotation
        JOINT RightWrist
        {
         OFFSET 0.000000 -24.004700 0.000000
         CHANNELS 3 Yrotation Xrotation Zrotation
         End Site
         {
          OFFSET 0.000000 -17.728500 0.000000
         }
        }
       }
      }
     }
     JOINT LeftCollar
     {
      OFFSET 2.921100 9.558500 0.000000
      CHANNELS 3 Yrotation Xrotation Zrotation
      JOINT LeftShoulder
      {
       OFFSET 13.519700 0.000000 0.000000
       CHANNELS 3 Yrotation Xrotation Zrotation
       JOINT LeftElbow
       {
        OFFSET 0.000000 -29.696600 0.000000
        CHANNELS 3 Yrotation Xrotation Zrotation
        JOINT LeftWrist
        {
         OFFSET 0.000000 -24.004700 0.000000
         CHANNELS 3 Yrotation Xrotation Zrotation
         End Site
         {
          OFFSET 0.000000 -17.728500 0.000000
         }
        }
       }
      }
     }
    }
   }
  }
 }
 JOINT RightHip
 {
  OFFSET -7.771700 -0.012900 -0.001300
  CHANNELS 3 Yrotation Xrotation Zrotation
  JOINT RightKnee
  {
   OFFSET 0.000000 -40.869800 0.001200
   CHANNELS 3 Yrotation Xrotation Zrotation
   JOINT RightAnkle
   {
    OFFSET 0.000000 -39.717900 0.002100
    CHANNELS 3 Yrotation Xrotation Zrotation
    JOINT RightToe
    {
     OFFSET 0.000000 -4.965400 11.033500
     CHANNELS 3 Yrotation Xrotation Zrotation
     End Site
     {
      OFFSET 0.000000 -1.423100 5.872300
     }
    }
   }
  }
 }
 JOINT LeftHip
 {
  OFFSET 7.771700 -0.012900 -0.001300
  CHANNELS 3 Yrotation Xrotation Zrotation
  JOINT LeftKnee
  {
   OFFSET 0.000000 -40.869800 0.001200
   CHANNELS 3 Yrotation Xrotation Zrotation
   JOINT LeftAnkle
   {
    OFFSET 0.000000 -39.717900 0.002100
    CHANNELS 3 Yrotation Xrotation Zrotation
    JOINT LeftToe
    {
     OFFSET 0.000000 -4.965400 11.033500
     CHANNELS 3 Yrotation Xrotation Zrotation
     End Site
     {
      OFFSET 0.000000 -1.423100 5.872300
     }
    }
   }
  }
 }
}
MOTION
Frames: 16
Frame Time: 0.008333
-31.419469 56.196829 37.632511 -168.729104 -31.580464 -10.498132 -3.703948 16.977052 7.201450 -2.194913 9.795717 2.676320 -2.682140 12.253627 3.302153 -2.194751 9.801398 2.671181 2.931478 17.517289 -3.566699 3.911752 -7.205907 -4.468670 1.213883 -0.258139 -5.738180 -2.375458 -23.825984 -4.295494 58.546765 -38.719285 -41.889683 7.318510 0.843438 -21.084761 -14.486272 1.056527 -3.634765 0.592801 -17.692309 8.070354 -59.544211 -38.985999 60.068676 1.894910 -17.237133 16.403786 -21.140132 -27.663422 2.982976 21.208591 88.614074 17.875479 0.387724 -25.018762 -0.463040 -0.078456 0.786465 -0.040716 -16.150812 -44.673055 3.609306 172.323854 73.051172 171.068550 1.673168 -22.231889 -1.472014 -1.189208 -3.583966 -0.526509
-31.420116 56.196552 37.633036 -168.726430 -31.578216 -10.501261 -3.707100 16.971035 7.206764 -2.197160 9.792457 2.678113 -2.683315 12.255250 3.300049 -2.197166 9.792441 2.678183 2.912886 17.502661 -3.568139 3.909924 -7.204074 -4.473869 1.211900 -0.262296 -5.740027 -2.346822 -23.829373 -4.296775 58.539729 -38.703882 -41.909295 7.349029 0.819670 -21.082095 -14.487160 1.060050 -3.650688 0.603668 -17.675193 8.065198 -59.500596 -39.052101 60.032283 1.898649 -17.230069 16.376082 -21.144114 -27.665578 2.986703 21.230487 88.615940 17.896615 0.385485 -25.015744 -0.461344 -0.078257 0.785359 -0.040918 -16.159479 -44.675730 3.615224 172.318473 73.049172 171.058022 1.672400 -22.229564 -1.466105 -1.188810 -3.586571 -0.529877
-31.419804 56.196083 37.633628 -168.729655 -31.574809 -10.505712 -3.709769 16.971470 7.213093 -2.199391 9.792842 2.680127 -2.686004 12.255815 3.302655 -2.214413 9.802634 2.689536 2.906341 17.461631 -3.584187 3.882656 -7.256993 -4.468077 1.224331 -0.300314 -5.738548 -2.302547 -23.823246 -4.322208 58.527995 -38.691222 -41.913819 7.367036 0.785487 -21.099048 -14.462166 1.039014 -3.672551 0.610935 -17.664434 8.062513 -59.479478 -39.089981 60.014806 1.954089 -17.222298 16.350320 -21.146490 -27.668839 2.992238 21.361673 88.612791 18.032346 0.386279 -25.011093 -0.465564 -0.077245 0.784520 -0.040499 -16.164370 -44.680204 3.625722 172.309172 73.045111 171.046569 1.671317 -22.225213 -1.456478 -1.192082 -3.592540 -0.535934
-31.419036 56.195608 37.633992 -168.729011 -31.571616 -10.513239 -3.709792 16.978492 7.221815 -2.203100 9.793726 2.682426 -2.690761 12.257053 3.305278 -2.219145 9.796064 2.686730 2.892982 17.429798 -3.581352 3.869141 -7.292325 -4.466759 1.234421 -0.310804 -5.738887 -2.283431 -23.837928 -4.324568 58.519646 -38.679293 -41.913431 7.370150 0.761292 -21.112199 -14.456784 1.023242 -3.677822 0.623432 -17.648944 8.059936 -59.449809 -39.128760 59.989903 2.002964 -17.215588 16.345278 -21.152527 -27.670552 3.000108 21.342187 88.612378 18.015467 0.389853 -25.005706 -0.463529 -0.077833 0.784609 -0.042080 -16.171519 -44.683597 3.637282 172.310619 73.041067 171.045889 1.673950 -22.223516 -1.445461 -1.198984 -3.597048 -0.540170
-31.417728 56.194519 37.635250 -168.724876 -31.561364 -10.522410 -3.718398 16.977291 7.226267 -2.207913 9.792965 2.683222 -2.696841 12.256080 3.306165 -2.221233 9.791325 2.689406 2.881583 17.406532 -3.582667 3.888472 -7.281069 -4.478337 1.248347 -0.315127 -5.741462 -2.276264 -23.854113 -4.323225 58.509424 -38.688370 -41.918254 7.390100 0.765829 -21.094736 -14.455338 1.011468 -3.683194 0.637654 -17.633185 8.048167 -59.374724 -39.188313 59.935990 1.979175 -17.224281 16.361468 -21.164697 -27.678473 3.014237 21.273307 88.612771 17.946668 0.389353 -25.000446 -0.464244 -0.077220 0.783836 -0.041292 -16.171854 -44.695205 3.639761 172.301289 73.037323 171.048013 1.678091 -22.221563 -1.445138 -1.201752 -3.599171 -0.540807
-31.415734 56.194510 37.634856 -168.725592 -31.564363 -10.532490 -3.718660 16.984259 7.235474 -2.213322 9.791616 2.683615 -2.703452 12.254363 3.306540 -2.225053 9.789830 2.695678 2.873122 17.421159 -3.566609 3.896043 -7.305675 -4.499416 1.250776 -0.339820 -5.720106 -2.258787 -23.848869 -4.346499 58.510003 -38.701333 -41.910214 7.397476 0.735701 -21.096370 -14.451471 0.997325 -3.695573 0.647009 -17.620012 8.033608 -59.267152 -39.236560 59.853225 1.899576 -17.262044 16.386048 -21.170393 -27.673668 3.030822 21.152716 88.614150 17.823099 0.387311 -24.988635 -0.466132 -0.077784 0.775101 -0.038155 -16.173898 -44.692250 3.647790 172.287987 73.030993 171.040644 1.681576 -22.217080 -1.446107 -1.205070 -3.607302 -0.541572
-31.414924 56.193769 37.635384 -168.721162 -31.562914 -10.534641 -3.729236 16.980456 7.239947 -2.215349 9.795452 2.682652 -2.708702 12.253674 3.307880 -2.227194 9.787058 2.695799 2.874809 17.451078 -3.558284 3.890270 -7.246271 -4.471559 1.257947 -0.344664 -5.723298 -2.263062 -23.850327 -4.346443 58.498802 -38.728884 -41.914826 7.404362 0.712201 -21.081776 -14.454509 0.973433 -3.702204 0.663296 -17.608631 8.015531 -59.229990 -39.232488 59.819266 1.931011 -17.270826 16.408539 -21.174929 -27.675550 3.036768 20.993538 88.615528 17.660921 0.385147 -24.986139 -0.463781 -0.077373 0.774356 -0.037545 -16.174838 -44.694759 3.645492 172.286604 73.029228 171.042022 1.684036 -22.216830 -1.447027 -1.205503 -3.608535 -0.540384
-31.414438 56.193153 37.635709 -168.715578 -31.565740 -10.533949 -3.737303 16.979356 7.235538 -2.218799 9.795847 2.687103 -2.712911 12.254243 3.309862 -2.231197 9.784447 2.694021 2.877983 17.479074 -3.552535 3.889242 -7.202920 -4.454814 1.266045 -0.347526 -5.723434 -2.270351 -23.849916 -4.345771 58.478934 -38.754332 -41.913458 7.420760 0.689273 -21.059564 -14.454825 0.950891 -3.708285 0.678568 -17.603096 7.998403 -59.168190 -39.218301 59.754430 1.938964 -17.275595 16.482752 -21.173363 -27.675012 3.033883 20.925128 88.621105 17.594595 0.382263 -24.983977 -0.461881 -0.075919 0.775582 -0.037202 -16.173476 -44.690253 3.639015 172.301625 73.031531 171.057449 1.686463 -22.226331 -1.446635 -1.203345 -3.600148 -0.539838
-31.413742 56.192502 37.636211 -168.700911 -31.568879 -10.538391 -3.752447 16.977597 7.231660 -2.223571 9.799131 2.686837 -2.720223 12.248432 3.313841 -2.231864 9.783291 2.691773 2.884528 17.497901 -3.555802 3.889509 -7.194030 -4.452159 1.275224 -0.351989 -5.712496 -2.278230 -23.855478 -4.347618 58.441980 -38.772401 -41.898321 7.386902 0.663614 -21.061962 -14.441837 0.906911 -3.708539 0.683497 -17.561634 7.981966 -59.106259 -39.198987 59.701376 1.926019 -17.315151 16.496209 -21.175794 -27.672124 3.031749 20.851664 88.622695 17.522837 0.376655 -24.980005 -0.457696 -0.075029 0.774818 -0.036452 -16.179513 -44.685959 3.633097 172.317380 73.033525 171.074861 1.685843 -22.232508 -1.447384 -1.199529 -3.593880 -0.537992
-31.412325 56.192202 37.636438 -168.695803 -31.578172 -10.543077 -3.759101 16.978595 7.233406 -2.224336 9.799740 2.686733 -2.721148 12.252056 3.312760 -2.235469 9.781553 2.692032 2.887501 17.514169 -3.543653 3.891713 -7.170897 -4.444065 1.264380 -0.375456 -5.673009 -2.263187 -23.844278 -4.374714 58.330768 -38.839441 -41.847416 7.416856 0.642380 -21.060638 -14.427075 0.895907 -3.709059 0.677432 -17.556842 7.970746 -59.047890 -39.170391 59.651307 1.922237 -17.327938 16.508676 -21.167994 -27.662344 3.037353 21.009867 88.620684 17.679769 0.359726 -24.977619 -0.446909 -0.076361 0.776530 -0.037690 -16.183245 -44.675474 3.635025 172.321197 73.032098 171.078467 1.682413 -22.236298 -1.447999 -1.195995 -3.593109 -0.534510
-31.411101 56.191663 37.637327 -168.693890 -31.586407 -10.546082 -3.767770 16.978362 7.233680 -2.238169 9.787163 2.688696 -2.716151 12.260751 3.307088 -2.232867 9.788074 2.688749 2.888126 17.507113 -3.537229 3.900772 -7.229274 -4.443626 1.262936 -0.379161 -5.657140 -2.261497 -23.851300 -4.374312 58.213649 -38.905854 -41.784772 7.424639 0.626326 -21.071698 -14.408845 0.890864 -3.710948 0.675818 -17.598326 7.932187 -58.933003 -39.091209 59.538899 1.896802 -17.364615 16.500665 -21.162189 -27.655654 3.040916 20.892364 88.622108 17.562332 0.356668 -24.972973 -0.441645 -0.077453 0.777013 -0.038375 -16.186010 -44.667067 3.638368 172.323576 73.030910 171.078522 1.681358 -22.238969 -1.446735 -1.196486 -3.591880 -0.534751
-31.410015 56.190817 37.639175 -168.694734 -31.591108 -10.548507 -3.774509 16.977266 7.233766 -2.244892 9.783338 2.688807 -2.740325 12.247665 3.311262 -2.221259 9.800948 2.682470 2.893699 17.465009 -3.539852 3.920901 -7.244891 -4.458467 1.275019 -0.375584 -5.654327 -2.286680 -23.885241 -4.330866 58.110372 -38.942905 -41.703482 7.396101 0.606319 -21.087642 -14.376869 0.889585 -3.724433 0.669741 -17.606358 7.917498 -58.842133 -39.073222 59.465098 1.858616 -17.359400 16.462482 -21.155738 -27.653050 3.044731 20.728322 88.623842 17.399436 0.358307 -24.969231 -0.430542 -0.079565 0.779394 -0.045573 -16.194349 -44.662575 3.648371 172.326171 73.029729 171.075566 1.676052 -22.241220 -1.443033 -1.194430 -3.590159 -0.536425
-31.409797 56.189947 37.641625 -168.697116 -31.594968 -10.547284 -3.775213 16.978916 7.232278 -2.252330 9.776904 2.689154 -2.745193 12.241992 3.309862 -2.246145 9.784288 2.686932 2.921285 17.476830 -3.551790 3.936824 -7.302847 -4.467550 1.306736 -0.352509 -5.654776 -2.307086 -23.896645 -4.309519 57.975698 -39.030062 -41.614164 7.362727 0.583679 -21.089987 -14.335410 0.912359 -3.746134 0.665602 -17.606326 7.912735 -58.802805 -39.072346 59.433953 1.890311 -17.257020 16.342397 -21.144370 -27.653285 3.041943 20.636002 88.624924 17.313858 0.358472 -24.966751 -0.426856 -0.079218 0.782770 -0.046804 -16.199857 -44.657100 3.658631 172.334863 73.031905 171.076778 1.661880 -22.250907 -1.440248 -1.186136 -3.581633 -0.530936
-31.409988 56.189778 37.643796 -168.702344 -31.604126 -10.545080 -3.780289 16.977626 7.231156 -2.247973 9.774565 2.685490 -2.747722 12.239647 3.307930 -2.248135 9.782417 2.685397 2.931757 17.409444 -3.548328 3.950873 -7.299613 -4.466950 1.313527 -0.348582 -5.638436 -2.316413 -23.893594 -4.307461 57.813537 -39.144959 -41.516399 7.333966 0.564294 -21.075814 -14.323130 0.922713 -3.749970 0.664435 -17.616359 7.896803 -58.763514 -39.060792 59.395328 1.912166 -17.205865 16.263285 -21.134024 -27.648930 3.036580 20.510176 88.628157 17.193558 0.363754 -24.962252 -0.426931 -0.080838 0.785001 -0.044904 -16.194262 -44.649496 3.659345 172.326203 73.031618 171.065161 1.656554 -22.249040 -1.436781 -1.186037 -3.583427 -0.530672
-31.411108 56.190309 37.645763 -168.699041 -31.616741 -10.543741 -3.784325 16.967892 7.224528 -2.249075 9.780945 2.683396 -2.748695 12.245067 3.306836 -2.248930 9.777198 2.681731 2.941929 17.364084 -3.539382 3.956551 -7.323378 -4.457998 1.314105 -0.349881 -5.614119 -2.325297 -23.887324 -4.305355 57.650132 -39.261569 -41.414149 7.312420 0.549656 -21.050255 -14.306764 0.901026 -3.741016 0.664573 -17.602612 7.866859 -58.593200 -39.103317 59.238018 1.786893 -17.269157 16.273481 -21.135259 -27.640302 3.023920 20.541805 88.622048 17.226135 0.373153 -24.956084 -0.429699 -0.083215 0.783197 -0.046147 -16.191772 -44.637181 3.653875 172.322380 73.033906 171.056652 1.652822 -22.247913 -1.434548 -1.186048 -3.582797 -0.529336
-31.412282 56.190892 37.648644 -168.695873 -31.625733 -10.541369 -3.785926 16.968482 7.219036 -2.248762 9.775416 2.680769 -2.750862 12.255648 3.308235 -2.247420 9.762887 2.674052 2.945910 17.327778 -3.525728 3.957267 -7.363615 -4.443840 1.309882 -0.351823 -5.586339 -2.357475 -23.883907 -4.279920 57.520341 -39.361153 -41.318237 7.299318 0.544674 -21.019931 -14.306545 0.913971 -3.735847 0.668267 -17.603849 7.860252 -58.461785 -39.175573 59.113854 1.825176 -17.233795 16.150475 -21.135247 -27.635491 3.013904 20.562300 88.619875 17.246767 0.376259 -24.950597 -0.428871 -0.083162 0.783077 -0.046982 -16.191269 -44.628307 3.649381 172.324740 73.038203 171.053809 1.649792 -22.247899 -1.433460 -1.184291 -3.579587 -0.527155
